<svg t="1667102963382" class="icon" viewBox="0 0 1024 1024" version="1.1" xmlns="http://www.w3.org/2000/svg" p-id="13866" width="128" height="128"><path d="M1011.676 528.104a34.133 34.133 0 0 1-48.273 0c-0.05-0.051-0.092-0.114-0.142-0.16l-0.008 0.009L528.002 92.707a22.756 22.756 0 0 0-32.181 0L60.57 527.953a34.133 34.133 0 1 1-48.272-48.272L471.685 20.295a56.889 56.889 0 0 1 80.452 0l459.387 459.386-0.007 0.007c0.052 0.051 0.107 0.092 0.159 0.144a34.133 34.133 0 0 1 0 48.272z m-82.2-251.873a34.133 34.133 0 0 1-34.134-34.134V128.32H781.565a34.133 34.133 0 0 1 0-68.267h147.91a34.133 34.133 0 0 1 34.134 34.133v147.911a34.133 34.133 0 0 1-34.133 34.134z m-794.17 269.938a34.133 34.133 0 0 1 34.127 33.848h0.007v349.298a22.756 22.756 0 0 0 22.756 22.756H348.07V684.693a56.889 56.889 0 0 1 56.89-56.889h213.901a56.889 56.889 0 0 1 56.89 56.889v267.378h155.875a22.756 22.756 0 0 0 22.755-22.756V584.91a34.133 34.133 0 1 1 67.876-5.182c0 0.096 0 0.19-0.007 0.285h0.398v383.436a56.889 56.889 0 0 1-56.889 56.888H607.485V718.353a22.756 22.756 0 0 0-22.756-22.755H439.093a22.756 22.756 0 0 0-22.755 22.755v301.984H158.062a56.889 56.889 0 0 1-56.889-56.888V580.017h0.007a34.133 34.133 0 0 1 34.127-33.848z" p-id="13867" fill="#ffffff"></path></svg>